<?xml version="1.0" encoding="UTF-8"?>
<svg id="Layer_1" data-name="Layer 1" xmlns="http://www.w3.org/2000/svg" version="1.1" viewBox="0 0 120 90">
  <defs>
    <style>
      .cls-1 {
        fill: #000;
        stroke-width: 0px;
      }
    </style>
  </defs>
  <path class="cls-1" d="M6.5,87.9c3.2-2.2,6.4-4.5,9.7-6.8-1-2.2-1.9-4.3-3.2-7.4,31.4-2,62.2-4,93-5.9.1.4.2.9.4,1.3-6.6,7.1-15.2,11.5-23.7,16,0,.4.2.9.3,1.3,1.9-.2,3.9,0,5.7-.6,1.5-.5,2.7-1.9,4-2.9,4.5-3.5,7.5-3.5,12.1,0,1.3,1,2.6,2.1,4,3,1.3.8,2.9,1.3,4.7,2.1-2.7,2.4-5.1,1.3-6.5-.2-5.6-5.9-10.6-5.6-16.3,0-3.1,3-7.3,2.2-11.2-.9-6.5-5.2-6.9-5.2-13.4,0-4.4,3.5-8.1,3.6-12.5,0-6.7-5.3-6.9-5.3-13.4-.2-4.9,3.9-9.9,3.4-15.2-1.2-4.6-4.1-5-4.1-10-.4-1.4,1.1-2.7,2.4-4.3,3.2-1.2.6-2.7.6-4,.8,0-.4-.2-.8-.2-1.1ZM100.2,72.1l-.5-1.3c-27.5,1.7-54.9,3.5-83.2,5.3,1.2,1.6,2.1,3.5,2.6,3.4,3.9-.8,5.4,2.3,7.7,4.2,4.5,3.6,7.8,4,11.7,1,7.6-5.8,8.7-5.8,16.6.2,3.1,2.4,6,2.6,9,.1.8-.6,1.6-1.3,2.4-1.9,4.3-3.4,6.8-3.5,11.6-.7.8.5,2.1,1.1,2.7.8,6.5-3.6,13-7.3,19.4-11Z"/>
  <path class="cls-1" d="M74.3,66.2c-18.1-7.7-36-7.4-53.8,2.6,7-10.7,11.3-21.7,10.8-34.3-.5-12.3-5.2-23.1-10.9-34.1,19.7.2,56.5,45.3,53.8,65.7ZM26.1,63.8c15.6-7.1,30.5-6.7,45.4-1.5-.6-18.4-29.9-54.9-45.7-57,9.2,19.1,12.1,38.2.3,58.5Z"/>
  <path class="cls-1" d="M96.2,65.1c-5.3-.8-9.8-1.5-15.1-2.3-.6-1.9-1.5-4.7-2.5-7.4-5.5-16.3-13.7-30.9-27.7-41.5-.6-.5-.8-1.6-1.2-2.4.9,0,2.1-.3,2.8.1,5.4,3.3,11.2,6.3,16,10.4,12.3,10.5,21,23.6,26.5,38.9.5,1.3.7,2.6,1.1,4.3ZM62.8,20.7c9.8,11.8,16,25.4,20.2,39.8,3.4.3,6.3.6,9.7.9-6.2-16.6-16.1-30-29.8-40.7Z"/>
</svg>