<?xml version="1.0" encoding="UTF-8"?>
<svg id="Layer_1" data-name="Layer 1" xmlns="http://www.w3.org/2000/svg" version="1.1" viewBox="0 0 120 90">
  <defs>
    <style>
      .cls-1 {
        fill: #282828;
        stroke-width: 0px;
      }

      .cls-2 {
        fill: #fff;
        stroke: #000;
        stroke-miterlimit: 10;
        stroke-width: 0px;
      }
    </style>
  </defs>
  <path class="cls-1" d="M30.2,0h59.6c9,0,16.3,7.3,16.3,16.3v57.3c0,9-7.3,16.3-16.3,16.3H30.2c-9,0-16.3-7.3-16.3-16.3V16.4C13.8,7.4,21.1,0,30.2,0Z"/>
  <rect class="cls-1" x="18.2" y="3.2" width="83.7" height="83.7" rx="11.3" ry="11.3"/>
  <g>
    <path class="cls-2" d="M28,70.7c1.9-1.3,3.8-2.7,5.8-4.1-.6-1.3-1.1-2.6-1.9-4.4,18.8-1.2,37.2-2.4,55.6-3.6,0,.3.1.5.2.8-3.9,4.3-9.1,6.9-14.2,9.6,0,.3.1.5.2.8,1.1-.1,2.4,0,3.4-.4.9-.3,1.6-1.1,2.4-1.7,2.7-2.1,4.5-2.1,7.2,0,.8.6,1.5,1.3,2.4,1.8.8.5,1.7.8,2.8,1.2-1.6,1.4-3.1.8-3.9-.1-3.3-3.5-6.3-3.3-9.8,0-1.9,1.8-4.4,1.3-6.7-.5-3.9-3.1-4.1-3.1-8,0-2.6,2.1-4.8,2.1-7.5,0-4-3.2-4.1-3.2-8-.1-2.9,2.3-5.9,2.1-9.1-.7-2.8-2.5-3-2.5-6-.2-.9.6-1.6,1.4-2.6,1.9-.7.4-1.6.4-2.4.5,0-.2,0-.4-.1-.7ZM84.1,61.2l-.3-.8c-16.4,1-32.8,2.1-49.7,3.2.7,1,1.3,2.1,1.6,2,2.3-.5,3.2,1.4,4.6,2.5,2.7,2.2,4.7,2.4,7,.6,4.6-3.5,5.2-3.5,9.9.1,1.8,1.4,3.6,1.5,5.4,0,.5-.4,1-.8,1.4-1.1,2.6-2,4.1-2.1,6.9-.4.5.3,1.2.7,1.6.5,3.9-2.1,7.8-4.4,11.6-6.6Z"/>
    <path class="cls-2" d="M68.6,57.7c-10.8-4.6-21.5-4.5-32.1,1.6,4.2-6.4,6.7-13,6.4-20.5-.3-7.3-3.1-13.8-6.5-20.4,11.8.1,33.8,27.1,32.2,39.3ZM39.7,56.3c9.3-4.3,18.2-4,27.1-.9-.3-11-17.9-32.8-27.3-34.1,5.5,11.4,7.2,22.8.2,35Z"/>
    <path class="cls-2" d="M81.6,57c-3.2-.5-5.9-.9-9-1.4-.4-1.1-.9-2.8-1.5-4.4-3.3-9.8-8.2-18.4-16.6-24.8-.4-.3-.5-1-.7-1.4.6,0,1.3-.2,1.7,0,3.2,2,6.7,3.7,9.6,6.2,7.3,6.3,12.6,14.1,15.8,23.3.3.8.4,1.6.7,2.6ZM61.7,30.5c5.9,7,9.6,15.2,12,23.8,2,.2,3.8.4,5.8.5-3.7-9.9-9.6-17.9-17.8-24.3Z"/>
  </g>
</svg>