<?xml version="1.0" encoding="UTF-8"?>
<svg id="Layer_1" data-name="Layer 1" xmlns="http://www.w3.org/2000/svg" version="1.1" viewBox="0 0 120 90">
  <defs>
    <style>
      .cls-1 {
        fill: #f24e1e;
      }

      .cls-1, .cls-2, .cls-3, .cls-4, .cls-5 {
        stroke-width: 0px;
      }

      .cls-2 {
        fill: #ff7262;
      }

      .cls-3 {
        fill: #a259ff;
      }

      .cls-4 {
        fill: #1abcfe;
      }

      .cls-5 {
        fill: #0acf83;
      }
    </style>
  </defs>
  <path class="cls-5" d="M46.5,85.5c7.5,0,13.5-6,13.5-13.5v-13.5h-13.5c-7.5,0-13.5,6-13.5,13.5s6,13.5,13.5,13.5Z"/>
  <path class="cls-3" d="M33,45c0-7.5,6-13.5,13.5-13.5h13.5v27h-13.5c-7.5,0-13.5-6-13.5-13.5Z"/>
  <path class="cls-1" d="M33,18c0-7.5,6-13.5,13.5-13.5h13.5v27h-13.5c-7.5,0-13.5-6-13.5-13.5Z"/>
  <path class="cls-2" d="M60,4.5h13.5c7.5,0,13.5,6,13.5,13.5s-6,13.5-13.5,13.5h-13.5V4.5Z"/>
  <path class="cls-4" d="M87,45c0,7.5-6,13.5-13.5,13.5s-13.5-6-13.5-13.5,6-13.5,13.5-13.5,13.5,6,13.5,13.5Z"/>
</svg>