<?xml version="1.0" encoding="UTF-8"?>
<svg id="_圖層_1" data-name=" 圖層 1" xmlns="http://www.w3.org/2000/svg" xmlns:xlink="http://www.w3.org/1999/xlink" version="1.1" viewBox="0 0 16 16">
  <defs>
    <style>
      .cls-1 {
        fill: url(#_未命名漸層);
      }

      .cls-1, .cls-2 {
        stroke-width: 0px;
      }

      .cls-2 {
        fill: #fff;
      }
    </style>
    <linearGradient id="_未命名漸層" data-name="未命名漸層" x1="0" y1="10" x2="15.9" y2="10" gradientTransform="translate(0 18) scale(1 -1)" gradientUnits="userSpaceOnUse">
      <stop offset="0" stop-color="#6a47af"/>
      <stop offset="1" stop-color="#f485d5"/>
    </linearGradient>
  </defs>
  <circle class="cls-1" cx="8" cy="8" r="7.9"/>
  <path class="cls-2" d="M12.4,4.5v7h1c0,0-4.4,0-4.4,0h0c0,0,1,0,1,0v-6.8l-2.5,6.9h0c-.1,0-.3-.1-.5-.3s-.3-.5-.5-.9c-.2-.4-.4-.8-.6-1.2-.2-.5-.4-.9-.6-1.4-.2-.5-.4-.9-.6-1.3s-.4-.8-.6-1v5.6c0,.1,0,.3.1.3,0,0,.2.1.3.1h.7c0,0-2.5,0-2.5,0h0c0,0,.7,0,.7,0,.1,0,.3,0,.3-.1,0,0,.1-.2.1-.3v-5.7c0,0-.1-.1-.2-.2,0,0-.1-.1-.2-.2-.2-.1-.3-.2-.5-.3-.1,0-.3-.1-.4-.1-.1,0-.3,0-.4,0h0c0,0,2,0,2,0,.2,0,.4,0,.6,0,.2,0,.3,0,.5.2.2,0,.4.2.6.4.2.2.4.4.5.6.2.3.3.5.5.8s.3.6.4.9c.1.3.2.6.3.8,0,.3.2.5.3.7,0,.2.2.3.2.4l1.7-4.8h3.3c0,0-1,0-1,0Z"/>
</svg>