<?xml version="1.0" encoding="UTF-8"?>
<svg id="_圖層_1" data-name=" 圖層 1" xmlns="http://www.w3.org/2000/svg" version="1.1" viewBox="0 0 36.2 36.2">
  <defs>
    <style>
      .cls-1 {
        fill: #fff;
        stroke-width: 0px;
      }
    </style>
  </defs>
  <path class="cls-1" d="M32.2,6.9v22.3h3.3v.3h-13.8v-.3h3.3V7.5l-7.8,22h-.3c-.4,0-.9-.4-1.5-1.1s-1.1-1.7-1.7-2.8c-.6-1.2-1.2-2.5-1.8-3.9-.6-1.5-1.3-2.9-1.9-4.4-.7-1.4-1.3-2.8-2-4.1s-1.3-2.4-1.9-3.3v17.8c0,.4.2.8.5,1.1.3.3.7.5,1.1.5h2.2v.3H2v-.3h2.2c.4,0,.8-.2,1.1-.5.3-.3.5-.7.5-1.1V9.6c-.2-.2-.4-.5-.6-.7-.2-.2-.4-.4-.5-.5-.5-.4-1-.7-1.5-.9-.5-.2-.9-.4-1.3-.4-.4,0-.8-.1-1.1-.2v-.3h6.3c.6,0,1.2,0,1.8.2.5.1,1.1.3,1.7.6.6.3,1.2.6,1.9,1.1.6.5,1.2,1.2,1.7,2,.5.8,1,1.7,1.5,2.6s.9,1.8,1.3,2.8c.4.9.7,1.8,1,2.6.3.8.6,1.5.9,2.2.3.6.5,1,.7,1.3l5.4-15.4h10.5v.3h-3.3Z"/>
</svg>