<?xml version="1.0" encoding="UTF-8"?>
<svg id="Layer_1" data-name="Layer 1" xmlns="http://www.w3.org/2000/svg" version="1.1" viewBox="0 0 22 14">
  <defs>
    <style>
      .cls-1 {
        fill: #fff;
        stroke-width: 0px;
      }
    </style>
  </defs>
  <path class="cls-1" d="M19.6.2v13.7h2v.2h-8.5v-.2h2V.5l-4.8,13.5h-.2c-.3,0-.6-.2-.9-.7s-.7-1-1-1.7c-.4-.7-.7-1.5-1.1-2.4-.4-.9-.8-1.8-1.2-2.7-.4-.9-.8-1.7-1.2-2.5s-.8-1.5-1.2-2v10.9c0,.3,0,.5.3.7.2.2.4.3.7.3h1.4v.2H1.1v-.2h1.3c.3,0,.5,0,.7-.3.2-.2.3-.4.3-.7V1.8c-.1-.1-.2-.3-.3-.4-.1-.1-.2-.2-.3-.3-.3-.2-.6-.4-.9-.5-.3-.1-.5-.2-.8-.3-.3,0-.5,0-.7-.1v-.2h3.9c.4,0,.7,0,1.1.1.3,0,.7.2,1.1.3.4.2.8.4,1.1.7.4.3.7.7,1,1.2.3.5.6,1,.9,1.6s.5,1.1.8,1.7c.2.6.4,1.1.6,1.6.2.5.4.9.5,1.3.2.4.3.6.4.8L15.2,0h6.5v.2h-2Z"/>
</svg>